<?xml version="1.0" encoding="utf-8"?>
<!-- Generator: Adobe Illustrator 22.0.0, SVG Export Plug-In . SVG Version: 6.00 Build 0)  -->
<svg version="1.1" id="Layer_1" xmlns="http://www.w3.org/2000/svg" xmlns:xlink="http://www.w3.org/1999/xlink" x="0px" y="0px"
	 viewBox="0 0 1366 768" style="enable-background:new 0 0 1366 768;" xml:space="preserve">
<style type="text/css">
	.st0{fill:none;stroke:#000000;stroke-width:5;stroke-miterlimit:10;}
	.st1{fill:none;stroke:#000000;stroke-width:8;stroke-miterlimit:10;}
	.st2{stroke:#000000;stroke-width:5;stroke-miterlimit:10;}
	.st3{fill:none;}
	.st4{font-family:'Herculanum';}
	.st5{font-size:37px;}
	.st6{stroke:#000000;stroke-miterlimit:10;}
	.st7{fill:none;stroke:#000000;stroke-miterlimit:10;}
</style>
<line class="st0" x1="630.5" y1="530.5" x2="747.5" y2="257.5"/>
<line class="st1" x1="624" y1="419" x2="628.5" y2="530.5"/>
<line class="st1" x1="618.5" y1="289.7" x2="623.6" y2="409.5"/>
<line class="st1" x1="515" y1="527.5" x2="633" y2="527.5"/>
<path class="st2" d="M845.3,521.7c-9.1,37-39.9,63-75.6,67.8c-3.8,0.5-7.7,0.8-11.6,0.8c-7.2,0-14.5-0.8-21.7-2.6
	c-1.3-0.3-2.5-0.7-3.8-1c-1.6-0.5-3.2-1-4.8-1.6c45.3,6.5,88.9-22.3,100.1-67.6c8-32.5-2.8-65.3-25.5-86.8
	c-8.9-8.5-19.7-15.2-31.9-19.5c2.9,0.4,5.9,1,8.8,1.7c13,3.2,24.7,9.1,34.6,17C840.5,451,853.9,486.5,845.3,521.7z"/>
<rect x="452.5" y="549.9" class="st3" width="102.8" height="13.6"/>
<rect x="321" y="541.7" class="st3" width="470" height="26.3"/>
<text transform="matrix(1 0 0 1 321 564.0186)" class="st4 st5">Koncept &amp; visualisering</text>
<path class="st6" d="M732.8,400.2c-1.2-1.4-2.3-2.8-3.4-4.3c-25.8-35.2-18.2-84.7,17-110.5c35.2-25.8,84.7-18.2,110.5,17
	c1.1,1.5,2.1,3,3.1,4.6c-26.6-31.5-73.4-37.4-107.1-12.7S710.8,365.4,732.8,400.2z"/>
<path class="st7" d="M978.5,259"/>
<path class="st7" d="M987.5,259"/>
</svg>
